<?xml version="1.0" standalone="no"?>
<!DOCTYPE svg PUBLIC "-//W3C//DTD SVG 20010904//EN"
 "http://www.w3.org/TR/2001/REC-SVG-20010904/DTD/svg10.dtd">
<svg version="1.0" xmlns="http://www.w3.org/2000/svg"
 width="512.000000pt" height="512.000000pt" viewBox="0 0 512.000000 512.000000"
 preserveAspectRatio="xMidYMid meet">

<g transform="translate(0.000000,512.000000) scale(0.100000,-0.100000)"
fill="#000000" stroke="none">
<path d="M1015 4675 c-253 -55 -464 -246 -552 -500 -27 -78 -27 -87 -31 -340
-4 -286 0 -313 51 -372 79 -90 214 -97 300 -15 60 56 62 66 67 332 5 243 5
246 33 301 32 66 99 132 165 162 43 20 69 22 292 27 266 5 276 7 332 67 101
106 63 280 -74 337 -49 21 -490 22 -583 1z"/>
<path d="M3515 4671 c-160 -74 -166 -293 -10 -379 25 -14 72 -18 275 -22 223
-5 249 -7 292 -27 66 -30 133 -96 165 -162 28 -55 28 -58 33 -301 5 -266 7
-276 67 -332 106 -101 280 -63 337 74 23 54 23 466 0 576 -49 241 -227 453
-455 542 -100 40 -188 50 -431 50 -205 0 -238 -3 -273 -19z"/>
<path d="M2070 3395 c-228 -56 -411 -240 -470 -471 -19 -72 -20 -112 -20 -563
0 -448 2 -489 19 -526 71 -158 298 -167 378 -16 20 39 23 58 23 158 l0 113
214 0 214 0 4 -112 c3 -98 7 -119 28 -158 83 -148 293 -147 373 4 22 41 22 44
22 551 l0 510 -28 82 c-91 268 -337 445 -616 442 -47 0 -111 -7 -141 -14z
m253 -437 c23 -13 55 -42 72 -66 l30 -44 3 -164 3 -164 -216 0 -217 0 4 153
c3 133 7 157 26 194 58 110 188 150 295 91z"/>
<path d="M3230 3386 c-26 -13 -58 -41 -75 -65 l-30 -43 -3 -707 -2 -707 23
-45 c63 -118 222 -146 324 -56 76 67 73 31 73 787 0 441 -4 688 -11 713 -33
120 -184 182 -299 123z"/>
<path d="M560 1714 c-46 -20 -87 -60 -112 -107 -18 -37 -19 -56 -16 -310 l3
-272 31 -88 c45 -124 87 -190 184 -287 98 -98 164 -140 287 -183 l88 -32 260
-3 c286 -4 313 0 372 51 90 79 97 214 15 300 -56 59 -67 62 -327 68 -286 7
-310 13 -396 98 -85 86 -91 110 -98 396 -6 260 -9 271 -68 327 -58 56 -151 73
-223 42z"/>
<path d="M4400 1714 c-19 -8 -48 -27 -63 -42 -59 -56 -62 -66 -68 -332 -5
-222 -7 -249 -27 -292 -30 -67 -94 -133 -161 -165 -55 -27 -59 -28 -301 -33
-266 -5 -276 -7 -332 -67 -82 -86 -75 -221 15 -300 59 -51 86 -55 372 -51 253
4 262 4 340 31 258 90 446 299 500 558 11 51 15 136 15 307 0 209 -3 242 -19
277 -48 103 -170 153 -271 109z"/>
</g>
</svg>
